<?xml version="1.0" encoding="utf-8"?>
<!-- Generator: Adobe Illustrator 19.0.0, SVG Export Plug-In . SVG Version: 6.00 Build 0)  -->
<svg version="1.1" id="Capa_1" xmlns="http://www.w3.org/2000/svg" xmlns:xlink="http://www.w3.org/1999/xlink" x="0px" y="0px"
	 viewBox="0 0 264.3 297.6" enable-background="new 0 0 264.3 297.6" xml:space="preserve">
<g id="XMLID_1_">
	<path id="XMLID_107_" fill="none" stroke="#000000" stroke-width="12" stroke-linecap="round" stroke-miterlimit="10" d="
		M193.5,249L193.5,249c28.6,0,52.7-21.3,56.2-49.6l8.3-66.2C260.4,114.5,245.9,98,227,98h-25.1l0-0.8l1.1-16.5
		c0-6.3-5.1-11.3-11.3-11.3H150"/>
	<path id="XMLID_109_" fill="none" stroke="#000000" stroke-width="12" stroke-linecap="round" stroke-miterlimit="10" d="
		M193.3,227c20.2-1.3,32.9-13.7,35.5-34.1l7.3-54.7c1.7-12,0.1-18.3-16.2-18.3h-19.2L191,265.7c0,14.3-11.6,26-26,26H44
		c-14.3,0-26-11.6-26-26L6,80.7c0-6.3,5.1-11.3,11.3-11.3h72.3"/>
	<g id="XMLID_111_">
		<path id="XMLID_39_" fill="none" stroke="#000000" stroke-width="12" stroke-linecap="round" stroke-miterlimit="10" d="M97.5,6
			c0,20.5-20,20.5-20,41c0,20.5,20,20.5,20,41s-20,20.5-20,41"/>
	</g>
	<g id="XMLID_112_">
		<path id="XMLID_37_" fill="none" stroke="#000000" stroke-width="12" stroke-linecap="round" stroke-miterlimit="10" d="M136.5,6
			c0,20.5-20,20.5-20,41c0,20.5,20,20.5,20,41s-20,20.5-20,41"/>
	</g>
</g>
</svg>
